<svg width="642" height="134" viewBox="0 0 642 134" fill="none" xmlns="http://www.w3.org/2000/svg">
<path d="M187.221 87.47V65.18H164.931V87.47H154.621V33.02H164.931V55.24H187.221V33.02H197.381V87.47H187.221Z" fill="white"/>
<path d="M220.621 99.89H210.021L215.171 86.53L199.201 45.4399H209.871L220.401 72.8099H220.551L231.081 45.4399H241.681L220.631 99.89H220.621Z" fill="white"/>
<path d="M252.852 52.48H253.002C253.772 51.37 254.642 50.3 255.612 49.29C256.582 48.27 257.682 47.39 258.912 46.64C260.142 45.89 261.512 45.3 263.012 44.86C264.512 44.42 266.132 44.21 267.872 44.21C270.772 44.21 273.512 44.77 276.072 45.88C278.632 46.99 280.872 48.55 282.792 50.56C284.702 52.57 286.212 54.93 287.332 57.64C288.442 60.35 289.002 63.3 289.002 66.5C289.002 69.7 288.442 72.65 287.332 75.36C286.222 78.07 284.702 80.42 282.792 82.4C280.882 84.39 278.642 85.93 276.072 87.05C273.502 88.16 270.772 88.7199 267.872 88.7199C264.532 88.7199 261.722 87.9899 259.452 86.5399C257.172 85.0899 255.292 83.37 253.792 81.38H253.642V99.89H243.482V45.44H252.852V52.48ZM253.652 66.49C253.652 68.19 253.982 69.78 254.632 71.28C255.282 72.78 256.172 74.09 257.282 75.2C258.392 76.31 259.702 77.1999 261.202 77.8499C262.702 78.4999 264.302 78.83 265.992 78.83C267.682 78.83 269.352 78.4999 270.852 77.8499C272.352 77.1999 273.662 76.31 274.772 75.2C275.882 74.09 276.752 72.78 277.382 71.28C278.012 69.78 278.322 68.18 278.322 66.49C278.322 64.8 278.002 63.2 277.382 61.7C276.752 60.2 275.882 58.88 274.772 57.74C273.662 56.6 272.352 55.71 270.852 55.05C269.352 54.4 267.732 54.07 265.992 54.07C264.252 54.07 262.702 54.4 261.202 55.05C259.702 55.7 258.392 56.6 257.282 57.74C256.172 58.88 255.282 60.2 254.632 61.7C253.982 63.2 253.652 64.8 253.652 66.49Z" fill="white"/>
<path d="M335.171 58.2501C335.471 59.0201 335.701 59.7701 335.881 60.5001C336.061 61.2401 336.211 62.0201 336.321 62.8601L304.951 74.9301C306.641 76.7701 308.701 78.0101 311.131 78.6601C313.561 79.3101 316.011 79.1501 318.501 78.2001C320.261 77.5201 321.751 76.5501 322.981 75.2701C324.201 74.0001 325.141 72.5301 325.801 70.8801L336.241 66.8701C336.331 69.1201 336.041 71.2901 335.361 73.3901C334.681 75.4901 333.731 77.4101 332.491 79.1601C331.241 80.9101 329.721 82.4801 327.921 83.8701C326.121 85.2601 324.141 86.3801 321.971 87.2101C319.211 88.2701 316.341 88.7501 313.351 88.6601C310.361 88.5701 307.521 87.9601 304.831 86.8401C302.141 85.7201 299.731 84.1201 297.581 82.0501C295.431 79.9701 293.801 77.4901 292.691 74.6001C291.581 71.7101 291.051 68.6501 291.201 65.6801C291.361 62.7201 292.051 59.9401 293.281 57.3301C294.511 54.7301 296.221 52.4101 298.421 50.3701C300.621 48.3301 303.181 46.7501 306.121 45.6201C309.061 44.4901 311.941 44.0001 314.911 44.1101C317.881 44.2101 320.681 44.8201 323.311 45.9301C325.941 47.0401 328.301 48.6501 330.381 50.7601C332.461 52.8601 334.061 55.3601 335.171 58.2501ZM323.361 58.2801C321.631 56.2001 319.521 54.8301 317.041 54.1801C314.561 53.5301 312.081 53.6801 309.591 54.6301C307.101 55.5801 305.231 57.1101 303.821 59.2601C302.421 61.4101 301.771 63.8401 301.881 66.5401L323.361 58.2801Z" fill="white"/>
<path d="M340.332 45.44H349.482V51.25H349.632C350.162 50.33 350.792 49.45 351.522 48.6C352.252 47.75 353.082 47 354.022 46.35C354.962 45.7 356.022 45.18 357.182 44.79C358.342 44.4 359.652 44.21 361.102 44.21H361.972V55.03C361.582 54.93 361.202 54.85 360.812 54.78C360.422 54.71 360.012 54.67 359.582 54.67C358.322 54.67 357.162 54.9 356.102 55.36C355.032 55.82 354.082 56.44 353.232 57.21C352.382 57.99 351.712 58.91 351.202 59.97C350.692 61.04 350.392 62.17 350.292 63.38V87.4799H340.342V45.44H340.332Z" fill="white"/>
<path d="M404.651 58.2501C404.951 59.0201 405.181 59.7701 405.361 60.5001C405.541 61.2401 405.681 62.0201 405.801 62.8601L374.431 74.9301C376.121 76.7701 378.181 78.0101 380.611 78.6601C383.041 79.3101 385.491 79.1501 387.981 78.2001C389.741 77.5201 391.231 76.5501 392.461 75.2701C393.681 74.0001 394.621 72.5301 395.281 70.8801L405.711 66.8701C405.801 69.1201 405.511 71.2901 404.831 73.3901C404.161 75.4901 403.201 77.4101 401.961 79.1601C400.711 80.9101 399.191 82.4801 397.391 83.8701C395.591 85.2601 393.611 86.3801 391.441 87.2101C388.681 88.2701 385.811 88.7501 382.821 88.6601C379.831 88.5701 376.991 87.9601 374.301 86.8401C371.611 85.7201 369.201 84.1201 367.051 82.0501C364.901 79.9701 363.271 77.4901 362.161 74.6001C361.051 71.7101 360.521 68.6501 360.671 65.6801C360.831 62.7201 361.521 59.9401 362.751 57.3301C363.981 54.7301 365.691 52.4101 367.891 50.3701C370.091 48.3301 372.651 46.7501 375.591 45.6201C378.531 44.4901 381.411 44.0001 384.381 44.1101C387.351 44.2101 390.151 44.8201 392.781 45.9301C395.411 47.0401 397.771 48.6501 399.851 50.7601C401.931 52.8601 403.531 55.3601 404.641 58.2501H404.651ZM392.841 58.2801C391.111 56.2001 389.001 54.8301 386.521 54.1801C384.041 53.5301 381.561 53.6801 379.071 54.6301C376.581 55.5801 374.711 57.1101 373.301 59.2601C371.901 61.4101 371.251 63.8401 371.361 66.5401L392.841 58.2801Z" fill="white"/>
<path d="M409.811 87.4699V45.4299H419.181V51.4599H419.321C420.431 49.4299 422.091 47.7099 424.291 46.3099C426.491 44.9099 429.191 44.2 432.381 44.2C434.801 44.2 437.001 44.6399 438.991 45.5099C440.971 46.3799 442.681 47.5999 444.111 49.1799C445.541 50.7499 446.651 52.6399 447.451 54.8399C448.251 57.0399 448.651 59.4499 448.651 62.0599V87.4699H438.491V63.3699C438.491 62.0599 438.251 60.8499 437.761 59.7399C437.281 58.6299 436.611 57.6499 435.761 56.7999C434.911 55.9499 433.931 55.2899 432.821 54.7999C431.711 54.3199 430.521 54.0699 429.261 54.0699C428.001 54.0699 426.741 54.3099 425.631 54.7999C424.521 55.2799 423.541 55.9499 422.691 56.7999C421.841 57.6499 421.181 58.6299 420.691 59.7399C420.211 60.8499 419.961 62.0599 419.961 63.3699V87.4699H409.801H409.811Z" fill="white"/>
<path d="M474.641 101.12C472.031 101.12 469.561 100.77 467.231 100.07C464.911 99.37 462.841 98.36 461.021 97.06C459.201 95.75 457.681 94.18 456.451 92.34C455.221 90.5 454.331 88.44 453.801 86.17H464.621C465.441 88.06 466.771 89.56 468.611 90.67C470.451 91.78 472.461 92.34 474.641 92.34C476.241 92.34 477.751 92.04 479.181 91.43C480.611 90.82 481.851 89.98 482.921 88.89C483.981 87.8 484.831 86.51 485.461 85.01C486.091 83.51 486.401 81.86 486.401 80.07V78.62L486.181 78.4799C485.451 79.2999 484.641 80.09 483.751 80.84C482.851 81.59 481.871 82.2799 480.811 82.9099C479.741 83.5399 478.601 84.04 477.361 84.4C476.131 84.76 474.811 84.94 473.401 84.94C470.451 84.94 467.691 84.43 465.121 83.42C462.551 82.41 460.321 80.99 458.411 79.17C456.501 77.35 455.001 75.2 453.911 72.71C452.821 70.22 452.281 67.4999 452.281 64.5399C452.281 61.5799 452.821 58.88 453.911 56.41C455.001 53.94 456.501 51.8 458.411 49.98C460.321 48.17 462.561 46.75 465.121 45.73C467.681 44.71 470.441 44.21 473.401 44.21C475.091 44.21 476.651 44.43 478.081 44.86C479.511 45.29 480.781 45.84 481.891 46.49C483.001 47.14 483.981 47.89 484.831 48.74C485.681 49.59 486.371 50.4 486.901 51.17L487.121 51.02V45.43H496.271V80.71C496.271 83.66 495.741 86.39 494.671 88.88C493.601 91.37 492.101 93.53 490.171 95.34C488.231 97.16 485.951 98.57 483.311 99.59C480.671 100.61 477.781 101.11 474.631 101.11L474.641 101.12ZM474.641 76.2899C476.241 76.2899 477.751 75.99 479.181 75.38C480.611 74.78 481.851 73.94 482.921 72.88C483.981 71.82 484.831 70.57 485.461 69.14C486.091 67.71 486.401 66.18 486.401 64.53C486.401 62.88 486.081 61.42 485.461 59.99C484.831 58.56 483.981 57.32 482.921 56.25C481.851 55.19 480.611 54.35 479.181 53.75C477.751 53.15 476.241 52.84 474.641 52.84C473.041 52.84 471.531 53.14 470.101 53.75C468.671 54.36 467.431 55.19 466.361 56.25C465.291 57.31 464.451 58.56 463.821 59.99C463.191 61.42 462.881 62.93 462.881 64.53C462.881 66.13 463.191 67.71 463.821 69.14C464.451 70.57 465.301 71.81 466.361 72.88C467.421 73.95 468.671 74.78 470.101 75.38C471.531 75.99 473.041 76.2899 474.641 76.2899Z" fill="white"/>
<path d="M535.262 81.2999H535.122C534.392 82.2699 533.562 83.2 532.622 84.09C531.682 84.99 530.622 85.77 529.462 86.45C528.302 87.13 527.022 87.67 525.612 88.08C524.212 88.49 522.682 88.7 521.042 88.7C518.142 88.7 515.402 88.14 512.842 87.03C510.272 85.92 508.042 84.3599 506.122 82.3499C504.212 80.3399 502.702 77.98 501.582 75.27C500.472 72.56 499.912 69.6099 499.912 66.4099C499.912 63.2099 500.472 60.2599 501.582 57.5499C502.692 54.8399 504.202 52.4899 506.122 50.5099C508.032 48.5299 510.272 46.9799 512.842 45.8599C515.402 44.7499 518.142 44.1899 521.042 44.1899C522.692 44.1899 524.212 44.3799 525.612 44.7699C527.012 45.1599 528.302 45.6899 529.462 46.3699C530.622 47.0499 531.672 47.8299 532.622 48.7299C533.562 49.6299 534.402 50.5599 535.122 51.5299H535.262V45.4299H545.352V87.4699H535.262V81.2999ZM535.262 66.4199C535.262 64.7299 534.942 63.1299 534.322 61.6299C533.692 60.1299 532.822 58.8199 531.712 57.7099C530.602 56.5999 529.292 55.7099 527.792 55.0599C526.292 54.4099 524.672 54.0799 522.932 54.0799C521.192 54.0799 519.642 54.4099 518.142 55.0599C516.642 55.7099 515.332 56.5999 514.222 57.7099C513.112 58.8199 512.222 60.1299 511.572 61.6299C510.922 63.1299 510.592 64.7299 510.592 66.4199C510.592 68.1099 510.922 69.7199 511.572 71.2499C512.222 72.7699 513.112 74.09 514.222 75.21C515.332 76.32 516.642 77.2099 518.142 77.8599C519.642 78.5099 521.242 78.84 522.932 78.84C524.622 78.84 526.292 78.5099 527.792 77.8599C529.292 77.2099 530.602 76.32 531.712 75.21C532.822 74.1 533.692 72.7799 534.322 71.2499C534.952 69.7199 535.262 68.1199 535.262 66.4199Z" fill="white"/>
<path d="M571.352 101.12C568.742 101.12 566.272 100.77 563.942 100.07C561.622 99.37 559.552 98.36 557.732 97.06C555.912 95.75 554.392 94.18 553.162 92.34C551.932 90.5 551.042 88.44 550.512 86.17H561.332C562.152 88.06 563.482 89.56 565.322 90.67C567.162 91.78 569.172 92.34 571.352 92.34C572.952 92.34 574.462 92.04 575.892 91.43C577.322 90.82 578.562 89.98 579.632 88.89C580.692 87.8 581.542 86.51 582.172 85.01C582.802 83.51 583.112 81.86 583.112 80.07V78.62L582.892 78.4799C582.162 79.2999 581.352 80.09 580.462 80.84C579.562 81.59 578.582 82.2799 577.522 82.9099C576.452 83.5399 575.312 84.04 574.072 84.4C572.842 84.76 571.522 84.94 570.112 84.94C567.162 84.94 564.402 84.43 561.832 83.42C559.262 82.41 557.032 80.99 555.122 79.17C553.212 77.35 551.712 75.2 550.622 72.71C549.532 70.22 548.992 67.4999 548.992 64.5399C548.992 61.5799 549.532 58.88 550.622 56.41C551.712 53.94 553.212 51.8 555.122 49.98C557.032 48.17 559.272 46.75 561.832 45.73C564.392 44.71 567.152 44.21 570.112 44.21C571.802 44.21 573.362 44.43 574.792 44.86C576.222 45.29 577.492 45.84 578.602 46.49C579.712 47.14 580.692 47.89 581.542 48.74C582.392 49.59 583.082 50.4 583.612 51.17L583.832 51.02V45.43H592.982V80.71C592.982 83.66 592.452 86.39 591.382 88.88C590.312 91.37 588.812 93.53 586.882 95.34C584.942 97.16 582.662 98.57 580.022 99.59C577.382 100.61 574.492 101.11 571.342 101.11L571.352 101.12ZM571.352 76.2899C572.952 76.2899 574.462 75.99 575.892 75.38C577.322 74.78 578.562 73.94 579.632 72.88C580.692 71.82 581.542 70.57 582.172 69.14C582.802 67.71 583.112 66.18 583.112 64.53C583.112 62.88 582.792 61.42 582.172 59.99C581.542 58.56 580.692 57.32 579.632 56.25C578.562 55.19 577.322 54.35 575.892 53.75C574.462 53.15 572.952 52.84 571.352 52.84C569.752 52.84 568.242 53.14 566.812 53.75C565.382 54.36 564.142 55.19 563.072 56.25C562.002 57.31 561.162 58.56 560.532 59.99C559.902 61.42 559.592 62.93 559.592 64.53C559.592 66.13 559.902 67.71 560.532 69.14C561.162 70.57 562.012 71.81 563.072 72.88C564.132 73.95 565.382 74.78 566.812 75.38C568.242 75.99 569.752 76.2899 571.352 76.2899Z" fill="white"/>
<path d="M640.602 58.2501C640.902 59.0201 641.132 59.7701 641.312 60.5001C641.492 61.2401 641.632 62.0201 641.752 62.8601L610.382 74.9301C612.072 76.7701 614.132 78.0101 616.562 78.6601C618.992 79.3101 621.442 79.1501 623.932 78.2001C625.692 77.5201 627.182 76.5501 628.412 75.2701C629.632 74.0001 630.572 72.5301 631.232 70.8801L641.662 66.8701C641.752 69.1201 641.462 71.2901 640.792 73.3901C640.122 75.4901 639.162 77.4101 637.922 79.1601C636.672 80.9101 635.152 82.4801 633.352 83.8701C631.552 85.2601 629.572 86.3801 627.402 87.2101C624.642 88.2701 621.772 88.7501 618.782 88.6601C615.792 88.5701 612.952 87.9601 610.262 86.8401C607.572 85.7201 605.162 84.1201 603.012 82.0501C600.862 79.9701 599.232 77.4901 598.122 74.6001C597.012 71.7101 596.482 68.6501 596.632 65.6801C596.792 62.7201 597.482 59.9401 598.712 57.3301C599.942 54.7301 601.652 52.4101 603.852 50.3701C606.052 48.3301 608.612 46.7501 611.552 45.6201C614.492 44.4901 617.372 44.0001 620.342 44.1101C623.312 44.2101 626.112 44.8201 628.742 45.9301C631.372 47.0401 633.732 48.6501 635.812 50.7601C637.892 52.8601 639.492 55.3601 640.602 58.2501ZM628.792 58.2801C627.062 56.2001 624.952 54.8301 622.472 54.1801C619.992 53.5301 617.512 53.6801 615.022 54.6301C612.532 55.5801 610.662 57.1101 609.262 59.2601C607.862 61.4101 607.212 63.8401 607.322 66.5401L628.802 58.2801H628.792Z" fill="white"/>
<path d="M119.991 74.2001C120.001 79.0501 120.031 83.8901 120.081 88.7301C120.181 98.1901 115.451 104.34 107.411 108.34C99.1509 112.46 90.6609 107.39 90.1909 98.2101C90.1609 97.8001 90.1609 97.3801 90.1609 96.9701V72.7101C90.1509 64.6201 90.211 56.5501 90.121 48.4601C90.061 41.5501 86.871 37.5401 81.271 37.0001C77.001 36.5901 73.841 38.2901 71.981 42.0001C71.261 43.4101 70.751 45.1001 70.421 47.0701C69.391 53.2601 64.981 57.2401 59.611 56.8101C54.031 56.3701 50.361 52.0801 50.321 45.7001C50.261 34.7101 50.221 23.7301 50.331 12.7401C50.441 2.87008 59.2109 -2.66992 67.771 2.03008C79.771 8.62008 91.691 15.3901 103.491 22.3301C105.781 23.6601 108.061 25.0001 110.331 26.3601C116.771 30.1901 120.121 36.1501 120.061 43.9501C119.971 54.0301 119.931 64.1201 119.971 74.2001H119.991Z" fill="white"/>
<path style="mix-blend-mode:multiply" opacity="0.29" d="M119.992 74.1999C114.722 78.9299 107.752 81.7999 100.112 81.7999C96.6222 81.7999 93.2822 81.1999 90.1722 80.0899V72.7099C90.1622 64.6199 90.2222 56.5499 90.1322 48.4599C90.0722 41.5499 86.8822 37.5399 81.2822 36.9999C77.0122 36.5899 73.8522 38.2899 71.9922 41.9999C76.1022 30.4399 87.1522 22.1499 100.122 22.1499C101.262 22.1499 102.392 22.2099 103.512 22.3399C105.802 23.6699 108.082 25.0099 110.352 26.3699C116.792 30.1999 120.142 36.1599 120.082 43.9599C119.992 54.0399 119.952 64.1299 119.992 74.2099V74.1999Z" fill="url(#paint0_linear_1208_5539)"/>
<path d="M0.0915546 59.9499C0.0815546 55.0999 0.0515545 50.2599 0.00155449 45.4199C-0.0984455 35.9599 4.63155 29.8099 12.6716 25.8099C20.9316 21.6899 29.4216 26.7599 29.8916 35.9399C29.9216 36.3499 29.9216 36.7699 29.9216 37.1799V61.4399C29.9316 69.5299 29.8716 77.5999 29.9616 85.6899C30.0216 92.5999 33.2116 96.6099 38.8116 97.1499C43.0816 97.5599 46.2416 95.8599 48.1016 92.1499C48.8216 90.7399 49.3316 89.0499 49.6616 87.0799C50.6916 80.8899 55.1016 76.91 60.4716 77.34C66.0516 77.78 69.7216 82.0699 69.7616 88.4499C69.8216 99.4399 69.8616 110.42 69.7516 121.41C69.6416 131.28 60.8716 136.82 52.3116 132.12C40.3116 125.53 28.3916 118.76 16.5916 111.82C14.3016 110.49 12.0216 109.15 9.75155 107.79C3.31155 103.96 -0.0384451 97.9999 0.0215549 90.1999C0.111555 80.1199 0.151555 70.0299 0.111555 59.9499H0.0915546Z" fill="white"/>
<path style="mix-blend-mode:multiply" opacity="0.29" d="M0.0907922 59.9501C5.36079 55.2201 12.3308 52.3501 19.9708 52.3501C23.4608 52.3501 26.8008 52.9501 29.9108 54.0601V61.4401C29.9208 69.5301 29.8608 77.6001 29.9508 85.6901C30.0108 92.6001 33.2008 96.6101 38.8008 97.1501C43.0708 97.5601 46.2308 95.8601 48.0908 92.1501C43.9808 103.71 32.9308 112 19.9608 112C18.8208 112 17.6908 111.94 16.5708 111.81C14.2808 110.48 12.0008 109.14 9.73079 107.78C3.29079 103.95 -0.059208 97.9901 0.000792006 90.1901C0.090792 80.1101 0.130792 70.0201 0.0907922 59.9401V59.9501Z" fill="url(#paint1_linear_1208_5539)"/>
<defs>
<linearGradient id="paint0_linear_1208_5539" x1="84.5322" y1="22.4599" x2="107.752" y2="63.6899" gradientUnits="userSpaceOnUse">
<stop/>
<stop offset="1" stop-color="#8267E6" stop-opacity="0"/>
</linearGradient>
<linearGradient id="paint1_linear_1208_5539" x1="35.5608" y1="111.69" x2="12.3408" y2="70.4601" gradientUnits="userSpaceOnUse">
<stop/>
<stop offset="1" stop-color="#8267E6" stop-opacity="0"/>
</linearGradient>
</defs>
</svg>
