<svg width="642" height="134" viewBox="0 0 642 134" fill="none" xmlns="http://www.w3.org/2000/svg">
<path d="M187.221 87.1475V64.8575H164.931V87.1475H154.621V32.6975H164.931V54.9175H187.221V32.6975H197.381V87.1475H187.221Z" fill="#21262D"/>
<path d="M220.621 99.5577H210.021L215.171 86.1977L199.201 45.1077H209.871L220.401 72.4777H220.551L231.081 45.1077H241.681L220.631 99.5577H220.621Z" fill="#21262D"/>
<path d="M252.852 52.1474H253.002C253.772 51.0374 254.642 49.9674 255.612 48.9574C256.582 47.9374 257.682 47.0574 258.912 46.3074C260.142 45.5574 261.512 44.9674 263.012 44.5274C264.512 44.0874 266.132 43.8774 267.872 43.8774C270.772 43.8774 273.512 44.4374 276.072 45.5474C278.632 46.6574 280.872 48.2174 282.792 50.2274C284.702 52.2374 286.212 54.5974 287.332 57.3074C288.442 60.0174 289.002 62.9674 289.002 66.1674C289.002 69.3674 288.442 72.3175 287.332 75.0275C286.222 77.7375 284.702 80.0874 282.792 82.0674C280.882 84.0574 278.642 85.5975 276.072 86.7175C273.502 87.8275 270.772 88.3874 267.872 88.3874C264.532 88.3874 261.722 87.6574 259.452 86.2074C257.172 84.7574 255.292 83.0374 253.792 81.0474H253.642V99.5574H243.482V45.1074H252.852V52.1474ZM253.652 66.1575C253.652 67.8575 253.982 69.4474 254.632 70.9474C255.282 72.4474 256.172 73.7574 257.282 74.8674C258.392 75.9774 259.702 76.8674 261.202 77.5174C262.702 78.1674 264.302 78.4975 265.992 78.4975C267.682 78.4975 269.352 78.1674 270.852 77.5174C272.352 76.8674 273.662 75.9774 274.772 74.8674C275.882 73.7574 276.752 72.4474 277.382 70.9474C278.012 69.4474 278.322 67.8475 278.322 66.1575C278.322 64.4675 278.002 62.8674 277.382 61.3674C276.752 59.8674 275.882 58.5474 274.772 57.4074C273.662 56.2674 272.352 55.3774 270.852 54.7174C269.352 54.0674 267.732 53.7374 265.992 53.7374C264.252 53.7374 262.702 54.0674 261.202 54.7174C259.702 55.3674 258.392 56.2674 257.282 57.4074C256.172 58.5474 255.282 59.8674 254.632 61.3674C253.982 62.8674 253.652 64.4675 253.652 66.1575Z" fill="#21262D"/>
<path d="M335.171 57.9175C335.471 58.6875 335.701 59.4375 335.881 60.1675C336.061 60.9075 336.211 61.6876 336.321 62.5276L304.951 74.5975C306.641 76.4375 308.701 77.6775 311.131 78.3275C313.561 78.9775 316.011 78.8176 318.501 77.8676C320.261 77.1876 321.751 76.2176 322.981 74.9376C324.201 73.6676 325.141 72.1976 325.801 70.5476L336.241 66.5375C336.331 68.7875 336.041 70.9576 335.361 73.0576C334.681 75.1576 333.731 77.0775 332.491 78.8275C331.241 80.5775 329.721 82.1475 327.921 83.5375C326.121 84.9275 324.141 86.0476 321.971 86.8776C319.211 87.9376 316.341 88.4175 313.351 88.3275C310.361 88.2375 307.521 87.6275 304.831 86.5075C302.141 85.3875 299.731 83.7876 297.581 81.7176C295.431 79.6376 293.801 77.1576 292.691 74.2676C291.581 71.3776 291.051 68.3175 291.201 65.3475C291.361 62.3875 292.051 59.6075 293.281 56.9975C294.511 54.3975 296.221 52.0776 298.421 50.0376C300.621 47.9976 303.181 46.4176 306.121 45.2876C309.061 44.1576 311.941 43.6675 314.911 43.7775C317.881 43.8775 320.681 44.4876 323.311 45.5976C325.941 46.7076 328.301 48.3176 330.381 50.4276C332.461 52.5276 334.061 55.0275 335.171 57.9175ZM323.361 57.9476C321.631 55.8676 319.521 54.4976 317.041 53.8476C314.561 53.1976 312.081 53.3475 309.591 54.2975C307.101 55.2475 305.231 56.7776 303.821 58.9276C302.421 61.0776 301.771 63.5076 301.881 66.2076L323.361 57.9476Z" fill="#21262D"/>
<path d="M340.332 45.1074H349.482V50.9174H349.632C350.162 49.9974 350.792 49.1174 351.522 48.2674C352.252 47.4174 353.082 46.6674 354.022 46.0174C354.962 45.3674 356.022 44.8474 357.182 44.4574C358.342 44.0674 359.652 43.8774 361.102 43.8774H361.972V54.6974C361.582 54.5974 361.202 54.5174 360.812 54.4474C360.422 54.3774 360.012 54.3374 359.582 54.3374C358.322 54.3374 357.162 54.5674 356.102 55.0274C355.032 55.4874 354.082 56.1074 353.232 56.8774C352.382 57.6574 351.712 58.5774 351.202 59.6374C350.692 60.7074 350.392 61.8374 350.292 63.0474V87.1474H340.342V45.1074H340.332Z" fill="#21262D"/>
<path d="M404.651 57.9175C404.951 58.6875 405.181 59.4375 405.361 60.1675C405.541 60.9075 405.681 61.6876 405.801 62.5276L374.431 74.5975C376.121 76.4375 378.181 77.6775 380.611 78.3275C383.041 78.9775 385.491 78.8176 387.981 77.8676C389.741 77.1876 391.231 76.2176 392.461 74.9376C393.681 73.6676 394.621 72.1976 395.281 70.5476L405.711 66.5375C405.801 68.7875 405.511 70.9576 404.831 73.0576C404.161 75.1576 403.201 77.0775 401.961 78.8275C400.711 80.5775 399.191 82.1475 397.391 83.5375C395.591 84.9275 393.611 86.0476 391.441 86.8776C388.681 87.9376 385.811 88.4175 382.821 88.3275C379.831 88.2375 376.991 87.6275 374.301 86.5075C371.611 85.3875 369.201 83.7876 367.051 81.7176C364.901 79.6376 363.271 77.1576 362.161 74.2676C361.051 71.3776 360.521 68.3175 360.671 65.3475C360.831 62.3875 361.521 59.6075 362.751 56.9975C363.981 54.3975 365.691 52.0776 367.891 50.0376C370.091 47.9976 372.651 46.4176 375.591 45.2876C378.531 44.1576 381.411 43.6675 384.381 43.7775C387.351 43.8775 390.151 44.4876 392.781 45.5976C395.411 46.7076 397.771 48.3176 399.851 50.4276C401.931 52.5276 403.531 55.0275 404.641 57.9175H404.651ZM392.841 57.9476C391.111 55.8676 389.001 54.4976 386.521 53.8476C384.041 53.1976 381.561 53.3475 379.071 54.2975C376.581 55.2475 374.711 56.7776 373.301 58.9276C371.901 61.0776 371.251 63.5076 371.361 66.2076L392.841 57.9476Z" fill="#21262D"/>
<path d="M409.811 87.1474V45.1074H419.181V51.1374H419.321C420.431 49.1074 422.091 47.3874 424.291 45.9874C426.491 44.5874 429.191 43.8774 432.381 43.8774C434.801 43.8774 437.001 44.3174 438.991 45.1874C440.971 46.0574 442.681 47.2774 444.111 48.8574C445.541 50.4274 446.651 52.3174 447.451 54.5174C448.251 56.7174 448.651 59.1274 448.651 61.7374V87.1474H438.491V63.0474C438.491 61.7374 438.251 60.5274 437.761 59.4174C437.281 58.3074 436.611 57.3274 435.761 56.4774C434.911 55.6274 433.931 54.9674 432.821 54.4774C431.711 53.9974 430.521 53.7474 429.261 53.7474C428.001 53.7474 426.741 53.9874 425.631 54.4774C424.521 54.9574 423.541 55.6274 422.691 56.4774C421.841 57.3274 421.181 58.3074 420.691 59.4174C420.211 60.5274 419.961 61.7374 419.961 63.0474V87.1474H409.801H409.811Z" fill="#21262D"/>
<path d="M474.641 100.787C472.031 100.787 469.561 100.437 467.231 99.7374C464.911 99.0374 462.841 98.0274 461.021 96.7274C459.201 95.4174 457.681 93.8474 456.451 92.0074C455.221 90.1674 454.331 88.1074 453.801 85.8374H464.621C465.441 87.7274 466.771 89.2274 468.611 90.3374C470.451 91.4474 472.461 92.0074 474.641 92.0074C476.241 92.0074 477.751 91.7074 479.181 91.0974C480.611 90.4874 481.851 89.6474 482.921 88.5574C483.981 87.4674 484.831 86.1774 485.461 84.6774C486.091 83.1774 486.401 81.5274 486.401 79.7374V78.2874L486.181 78.1474C485.451 78.9674 484.641 79.7574 483.751 80.5074C482.851 81.2574 481.871 81.9474 480.811 82.5774C479.741 83.2074 478.601 83.7074 477.361 84.0674C476.131 84.4274 474.811 84.6074 473.401 84.6074C470.451 84.6074 467.691 84.0974 465.121 83.0874C462.551 82.0774 460.321 80.6574 458.411 78.8374C456.501 77.0174 455.001 74.8675 453.911 72.3775C452.821 69.8875 452.281 67.1674 452.281 64.2074C452.281 61.2474 452.821 58.5474 453.911 56.0774C455.001 53.6074 456.501 51.4674 458.411 49.6474C460.321 47.8374 462.561 46.4174 465.121 45.3974C467.681 44.3774 470.441 43.8774 473.401 43.8774C475.091 43.8774 476.651 44.0974 478.081 44.5274C479.511 44.9574 480.781 45.5074 481.891 46.1574C483.001 46.8074 483.981 47.5574 484.831 48.4074C485.681 49.2574 486.371 50.0674 486.901 50.8374L487.121 50.6874V45.0974H496.271V80.3775C496.271 83.3275 495.741 86.0574 494.671 88.5474C493.601 91.0374 492.101 93.1974 490.171 95.0074C488.231 96.8274 485.951 98.2374 483.311 99.2574C480.671 100.277 477.781 100.777 474.631 100.777L474.641 100.787ZM474.641 75.9574C476.241 75.9574 477.751 75.6574 479.181 75.0474C480.611 74.4474 481.851 73.6074 482.921 72.5474C483.981 71.4874 484.831 70.2374 485.461 68.8074C486.091 67.3774 486.401 65.8474 486.401 64.1974C486.401 62.5474 486.081 61.0874 485.461 59.6574C484.831 58.2274 483.981 56.9874 482.921 55.9174C481.851 54.8574 480.611 54.0174 479.181 53.4174C477.751 52.8174 476.241 52.5074 474.641 52.5074C473.041 52.5074 471.531 52.8074 470.101 53.4174C468.671 54.0274 467.431 54.8574 466.361 55.9174C465.291 56.9774 464.451 58.2274 463.821 59.6574C463.191 61.0874 462.881 62.5974 462.881 64.1974C462.881 65.7974 463.191 67.3774 463.821 68.8074C464.451 70.2374 465.301 71.4774 466.361 72.5474C467.421 73.6174 468.671 74.4474 470.101 75.0474C471.531 75.6574 473.041 75.9574 474.641 75.9574Z" fill="#21262D"/>
<path d="M535.262 80.9677H535.122C534.392 81.9377 533.562 82.8677 532.622 83.7577C531.682 84.6577 530.622 85.4377 529.462 86.1177C528.302 86.7977 527.022 87.3377 525.612 87.7477C524.212 88.1577 522.682 88.3677 521.042 88.3677C518.142 88.3677 515.402 87.8077 512.842 86.6977C510.272 85.5877 508.042 84.0277 506.122 82.0177C504.212 80.0077 502.702 77.6477 501.582 74.9377C500.472 72.2277 499.912 69.2777 499.912 66.0777C499.912 62.8777 500.472 59.9277 501.582 57.2177C502.692 54.5077 504.202 52.1577 506.122 50.1777C508.032 48.1977 510.272 46.6477 512.842 45.5277C515.402 44.4177 518.142 43.8577 521.042 43.8577C522.692 43.8577 524.212 44.0477 525.612 44.4377C527.012 44.8277 528.302 45.3577 529.462 46.0377C530.622 46.7177 531.672 47.4977 532.622 48.3977C533.562 49.2977 534.402 50.2277 535.122 51.1977H535.262V45.0977H545.352V87.1377H535.262V80.9677ZM535.262 66.0877C535.262 64.3977 534.942 62.7977 534.322 61.2977C533.692 59.7977 532.822 58.4877 531.712 57.3777C530.602 56.2677 529.292 55.3777 527.792 54.7277C526.292 54.0777 524.672 53.7477 522.932 53.7477C521.192 53.7477 519.642 54.0777 518.142 54.7277C516.642 55.3777 515.332 56.2677 514.222 57.3777C513.112 58.4877 512.222 59.7977 511.572 61.2977C510.922 62.7977 510.592 64.3977 510.592 66.0877C510.592 67.7777 510.922 69.3877 511.572 70.9177C512.222 72.4377 513.112 73.7577 514.222 74.8777C515.332 75.9877 516.642 76.8777 518.142 77.5277C519.642 78.1777 521.242 78.5077 522.932 78.5077C524.622 78.5077 526.292 78.1777 527.792 77.5277C529.292 76.8777 530.602 75.9877 531.712 74.8777C532.822 73.7677 533.692 72.4477 534.322 70.9177C534.952 69.3877 535.262 67.7877 535.262 66.0877Z" fill="#21262D"/>
<path d="M571.352 100.787C568.742 100.787 566.272 100.437 563.942 99.7374C561.622 99.0374 559.552 98.0274 557.732 96.7274C555.912 95.4174 554.392 93.8474 553.162 92.0074C551.932 90.1674 551.042 88.1074 550.512 85.8374H561.332C562.152 87.7274 563.482 89.2274 565.322 90.3374C567.162 91.4474 569.172 92.0074 571.352 92.0074C572.952 92.0074 574.462 91.7074 575.892 91.0974C577.322 90.4874 578.562 89.6474 579.632 88.5574C580.692 87.4674 581.542 86.1774 582.172 84.6774C582.802 83.1774 583.112 81.5274 583.112 79.7374V78.2874L582.892 78.1474C582.162 78.9674 581.352 79.7574 580.462 80.5074C579.562 81.2574 578.582 81.9474 577.522 82.5774C576.452 83.2074 575.312 83.7074 574.072 84.0674C572.842 84.4274 571.522 84.6074 570.112 84.6074C567.162 84.6074 564.402 84.0974 561.832 83.0874C559.262 82.0774 557.032 80.6574 555.122 78.8374C553.212 77.0174 551.712 74.8675 550.622 72.3775C549.532 69.8875 548.992 67.1674 548.992 64.2074C548.992 61.2474 549.532 58.5474 550.622 56.0774C551.712 53.6074 553.212 51.4674 555.122 49.6474C557.032 47.8374 559.272 46.4174 561.832 45.3974C564.392 44.3774 567.152 43.8774 570.112 43.8774C571.802 43.8774 573.362 44.0974 574.792 44.5274C576.222 44.9574 577.492 45.5074 578.602 46.1574C579.712 46.8074 580.692 47.5574 581.542 48.4074C582.392 49.2574 583.082 50.0674 583.612 50.8374L583.832 50.6874V45.0974H592.982V80.3775C592.982 83.3275 592.452 86.0574 591.382 88.5474C590.312 91.0374 588.812 93.1974 586.882 95.0074C584.942 96.8274 582.662 98.2374 580.022 99.2574C577.382 100.277 574.492 100.777 571.342 100.777L571.352 100.787ZM571.352 75.9574C572.952 75.9574 574.462 75.6574 575.892 75.0474C577.322 74.4474 578.562 73.6074 579.632 72.5474C580.692 71.4874 581.542 70.2374 582.172 68.8074C582.802 67.3774 583.112 65.8474 583.112 64.1974C583.112 62.5474 582.792 61.0874 582.172 59.6574C581.542 58.2274 580.692 56.9874 579.632 55.9174C578.562 54.8574 577.322 54.0174 575.892 53.4174C574.462 52.8174 572.952 52.5074 571.352 52.5074C569.752 52.5074 568.242 52.8074 566.812 53.4174C565.382 54.0274 564.142 54.8574 563.072 55.9174C562.002 56.9774 561.162 58.2274 560.532 59.6574C559.902 61.0874 559.592 62.5974 559.592 64.1974C559.592 65.7974 559.902 67.3774 560.532 68.8074C561.162 70.2374 562.012 71.4774 563.072 72.5474C564.132 73.6174 565.382 74.4474 566.812 75.0474C568.242 75.6574 569.752 75.9574 571.352 75.9574Z" fill="#21262D"/>
<path d="M640.602 57.9175C640.902 58.6875 641.132 59.4375 641.312 60.1675C641.492 60.9075 641.632 61.6876 641.752 62.5276L610.382 74.5975C612.072 76.4375 614.132 77.6775 616.562 78.3275C618.992 78.9775 621.442 78.8176 623.932 77.8676C625.692 77.1876 627.182 76.2176 628.412 74.9376C629.632 73.6676 630.572 72.1976 631.232 70.5476L641.662 66.5375C641.752 68.7875 641.462 70.9576 640.792 73.0576C640.122 75.1576 639.162 77.0775 637.922 78.8275C636.672 80.5775 635.152 82.1475 633.352 83.5375C631.552 84.9275 629.572 86.0476 627.402 86.8776C624.642 87.9376 621.772 88.4175 618.782 88.3275C615.792 88.2375 612.952 87.6275 610.262 86.5075C607.572 85.3875 605.162 83.7876 603.012 81.7176C600.862 79.6376 599.232 77.1576 598.122 74.2676C597.012 71.3776 596.482 68.3175 596.632 65.3475C596.792 62.3875 597.482 59.6075 598.712 56.9975C599.942 54.3975 601.652 52.0776 603.852 50.0376C606.052 47.9976 608.612 46.4176 611.552 45.2876C614.492 44.1576 617.372 43.6675 620.342 43.7775C623.312 43.8775 626.112 44.4876 628.742 45.5976C631.372 46.7076 633.732 48.3176 635.812 50.4276C637.892 52.5276 639.492 55.0275 640.602 57.9175ZM628.792 57.9476C627.062 55.8676 624.952 54.4976 622.472 53.8476C619.992 53.1976 617.512 53.3475 615.022 54.2975C612.532 55.2475 610.662 56.7776 609.262 58.9276C607.862 61.0776 607.212 63.5076 607.322 66.2076L628.802 57.9476H628.792Z" fill="#21262D"/>
<path d="M119.991 73.8676C120.001 78.7176 120.031 83.5576 120.081 88.3976C120.181 97.8576 115.451 104.008 107.411 108.008C99.1509 112.128 90.6609 107.058 90.1909 97.8776C90.1609 97.4676 90.1609 97.0476 90.1609 96.6376V72.3776C90.1509 64.2876 90.211 56.2176 90.121 48.1276C90.061 41.2176 86.871 37.2075 81.271 36.6675C77.001 36.2575 73.841 37.9575 71.981 41.6675C71.261 43.0775 70.751 44.7676 70.421 46.7376C69.391 52.9276 64.981 56.9076 59.611 56.4776C54.031 56.0376 50.361 51.7476 50.321 45.3676C50.261 34.3776 50.221 23.3976 50.331 12.4076C50.441 2.53756 59.2109 -3.00244 67.771 1.69756C79.771 8.28756 91.691 15.0576 103.491 21.9976C105.781 23.3276 108.061 24.6676 110.331 26.0276C116.771 29.8576 120.121 35.8176 120.061 43.6176C119.971 53.6976 119.931 63.7876 119.971 73.8676H119.991Z" fill="#8267E6"/>
<path style="mix-blend-mode:multiply" opacity="0.29" d="M119.99 73.8676C114.72 78.5976 107.75 81.4676 100.11 81.4676C96.6202 81.4676 93.2802 80.8676 90.1702 79.7576V72.3776C90.1602 64.2876 90.2202 56.2176 90.1302 48.1276C90.0702 41.2176 86.8802 37.2076 81.2802 36.6676C77.0102 36.2576 73.8502 37.9576 71.9902 41.6676C76.1002 30.1076 87.1502 21.8176 100.12 21.8176C101.26 21.8176 102.39 21.8776 103.51 22.0076C105.8 23.3376 108.08 24.6776 110.35 26.0376C116.79 29.8676 120.14 35.8276 120.08 43.6276C119.99 53.7076 119.95 63.7976 119.99 73.8776V73.8676Z" fill="url(#paint0_linear_1208_5540)"/>
<path d="M0.0915546 59.6176C0.0815546 54.7676 0.0515545 49.9276 0.00155449 45.0876C-0.0984455 35.6276 4.63155 29.4776 12.6716 25.4776C20.9316 21.3576 29.4216 26.4276 29.8916 35.6076C29.9216 36.0176 29.9216 36.4376 29.9216 36.8476V61.1076C29.9316 69.1976 29.8716 77.2676 29.9616 85.3576C30.0216 92.2676 33.2116 96.2776 38.8116 96.8176C43.0816 97.2276 46.2416 95.5276 48.1016 91.8176C48.8216 90.4076 49.3316 88.7177 49.6616 86.7477C50.6916 80.5577 55.1016 76.5776 60.4716 77.0076C66.0516 77.4476 69.7216 81.7376 69.7616 88.1176C69.8216 99.1076 69.8616 110.088 69.7516 121.078C69.6416 130.948 60.8716 136.488 52.3116 131.788C40.3116 125.198 28.3916 118.428 16.5916 111.488C14.3016 110.158 12.0216 108.818 9.75155 107.458C3.31155 103.628 -0.0384451 97.6676 0.0215549 89.8676C0.111555 79.7876 0.151555 69.6976 0.111555 59.6176H0.0915546Z" fill="#8267E6"/>
<path style="mix-blend-mode:multiply" opacity="0.29" d="M0.0907922 59.6176C5.36079 54.8876 12.3308 52.0176 19.9708 52.0176C23.4608 52.0176 26.8008 52.6176 29.9108 53.7276V61.1076C29.9208 69.1976 29.8608 77.2676 29.9508 85.3576C30.0108 92.2676 33.2008 96.2776 38.8008 96.8176C43.0708 97.2276 46.2308 95.5276 48.0908 91.8176C43.9808 103.378 32.9308 111.668 19.9608 111.668C18.8208 111.668 17.6908 111.608 16.5708 111.478C14.2808 110.148 12.0008 108.808 9.73079 107.448C3.29079 103.618 -0.059208 97.6576 0.000792006 89.8576C0.090792 79.7776 0.130792 69.6876 0.0907922 59.6076V59.6176Z" fill="url(#paint1_linear_1208_5540)"/>
<defs>
<linearGradient id="paint0_linear_1208_5540" x1="84.5302" y1="22.1276" x2="107.75" y2="63.3576" gradientUnits="userSpaceOnUse">
<stop/>
<stop offset="1" stop-color="#8267E6" stop-opacity="0"/>
</linearGradient>
<linearGradient id="paint1_linear_1208_5540" x1="35.5608" y1="111.358" x2="12.3408" y2="70.1276" gradientUnits="userSpaceOnUse">
<stop/>
<stop offset="1" stop-color="#8267E6" stop-opacity="0"/>
</linearGradient>
</defs>
</svg>
